# xmcd
#
# Track frame offsets:
#	150
#	11058
#	23050
#	38800
#	53403
#	68368
#	89748
#	103963
#	116458
#	130885
#	142810
#	156468
#	171500
#	185180
#	199155
#	211433
#	221303
#	236630
#	246870
#	260343
#	270248
#	292063
#	303300
#	317575
#	334720
#
# Disc length: 4670 seconds
#
# Revision: 0
# Processed by: cddbd v1.4PL0 Copyright (c) Steve Scherf et al.
# Submitted via: MusicWizard 6.0.2
#
DISCID=70123c19
DTITLE=Various Artist - The Blues Collection Vol. 3
DYEAR=1900
DGENRE=Blues
TTITLE0=John Lee Hooker - I Want To Shout
TTITLE1=Big Joe Williams - Ride In My New Car Blues
TTITLE2=Screamin Jay Hawkins - I Put A Speel On You
TTITLE3=Louis Armstrong - Dipper Mouth Blues
TTITLE4=Pine Top Smith - Jump Steady Blues
TTITLE5=Lightnin' Hopkins - Don´t Wake Me
TTITLE6=Ella Fitzgerald - Sugar Blues
TTITLE7=Louis Jordan - I Got The Walkin Blues
TTITLE8=Pete Johnson - Blues On The Downbeat
TTITLE9=Lightning Slim - Rooster Blues
TTITLE10=Ray Anthony - Harlem Nocturne
TTITLE11=Paul Whiteman and His Orchestra - Wang Wang Blues
TTITLE12=Sidney Bechet - Weary Blues
TTITLE13=Ike and Tina Turner - It Sho´aint Me
TTITLE14=Cab Calloway - Birth Of The Blues
TTITLE15=John Lee Hooker - I´m Leaving Baby
TTITLE16=Nat King Cole - Satched Mouth Blues
TTITLE17=Big Joe Williams - 44 Blues
TTITLE18=King Cole Trio - Blue Lou
TTITLE19=Benny Goodman - St. Louis Blues
TTITLE20=George Benson - All Blues
TTITLE21=Artie Shaw - My Blue Heaven
TTITLE22=Duke Ellington - Blue Tune
TTITLE23=Nina Simone - Nina´s Blues
TTITLE24=Glenn Miller - Serenade In Blue
EXTD=
EXTT0=
EXTT1=
EXTT2=
EXTT3=
EXTT4=
EXTT5=
EXTT6=
EXTT7=
EXTT8=
EXTT9=
EXTT10=
EXTT11=
EXTT12=
EXTT13=
EXTT14=
EXTT15=
EXTT16=
EXTT17=
EXTT18=
EXTT19=
EXTT20=
EXTT21=
EXTT22=
EXTT23=
EXTT24=
PLAYORDER=
